<svg width="39" height="39" viewBox="0 0 39 39" fill="none" xmlns="http://www.w3.org/2000/svg">
<path d="M19.4157 24.0963L17.1176 26.3943L10.2233 19.5001L17.1176 12.6058L19.4157 14.9039L16.4445 17.8751H28.6923V21.1251H16.4445L19.4157 24.0963Z" fill="#3C64B1"/>
<path fill-rule="evenodd" clip-rule="evenodd" d="M37.375 30.875C37.375 34.4648 34.4649 37.375 30.875 37.375H8.125C4.53515 37.375 1.625 34.4648 1.625 30.875V8.125C1.625 4.53515 4.53515 1.625 8.125 1.625H30.875C34.4649 1.625 37.375 4.53515 37.375 8.125V30.875ZM30.875 34.125H8.125C6.33008 34.125 4.875 32.6699 4.875 30.875V8.125C4.875 6.33008 6.33008 4.875 8.125 4.875H30.875C32.6699 4.875 34.125 6.33008 34.125 8.125V30.875C34.125 32.6699 32.6699 34.125 30.875 34.125Z" fill="#3C64B1"/>
</svg>
