<svg width="123" height="37" viewBox="0 0 123 37" fill="none" xmlns="http://www.w3.org/2000/svg">
<path d="M5.64062 7.59375L0.953125 13.6875L9.39062 17.3438C9.04688 16.625 8.92188 16.0938 9.01562 15.75C10.0156 15.5625 10.8594 15.75 11.5469 16.3125C11.7969 16.8125 11.8906 17.3438 11.8281 17.9062V22.5C11.4531 27.125 12.8281 30.8125 15.9531 33.5625C19.2656 36 22.7344 36.6562 26.3594 35.5312C29.6719 34.2812 31.9844 32.1875 33.2969 29.25C33.6719 28.125 33.9219 27.1875 34.0469 26.4375V9H26.1719V25.3125L26.0781 26.0625L25.7969 27.0938C25.2344 28.2188 24.4844 28.9688 23.5469 29.3438C21.6094 29.2188 20.4531 28.2188 20.0781 26.3438L19.9844 17.5312L19.3281 13.875C16.7031 8.9375 12.4531 7.21875 6.57812 8.71875C6.39062 8.15625 6.14062 7.71875 5.82812 7.40625L5.64062 7.59375Z" fill="#4C84AD"/>
<path d="M37.5391 9.14062L42.0859 16.2188L42.3672 16.6875C42.6797 17.125 42.8984 17.4688 43.0234 17.7188L44.8047 20.3438L44.9922 20.5312L45.2734 21C45.6484 21.5 45.9297 21.9375 46.1172 22.3125L36.2266 36.0234L39.9297 36H44.7109L48.3672 30.6562L48.5547 30.4688L49.2109 29.4375C49.5859 28.9375 49.8672 28.5 50.0547 28.125L55.3984 36H63.5547C63.1172 35.1875 62.6797 34.5312 62.2422 34.0312C61.8672 33.3438 61.3984 32.625 60.8359 31.875L60.6484 31.6875L58.5859 28.5938L58.3047 28.2188L57.8359 27.5625L56.7109 25.9688L56.5234 25.5938L54.9297 23.25L54.7422 23.0625L54.1797 22.2188L54.4609 21.8438L54.8359 21.375L55.0234 21L56.1484 19.4062L56.5234 18.9375L56.8047 18.4688L57.5547 17.4375L58.7734 15.6562L58.8672 15.4688L60.8359 12.6562L61.1172 12.2812L62.1484 10.6875C62.5859 10.1875 62.8984 9.6875 63.0859 9.1875H55.2109L55.0234 9.375L54.5547 10.125L54.2734 10.5L52.7734 12.75L52.5859 12.9375L50.2422 16.4062C49.9297 15.9688 49.7266 15.6719 49.6328 15.5156C49.5391 15.3594 49.4297 15.25 49.3047 15.1875L49.1172 14.8125L48.9297 14.625L48.2734 13.5938L48.0859 13.4062L47.0547 11.9062L46.9609 11.7188L45.2734 9.1875H39.9297L37.5391 9.14062Z" fill="#4C84AD"/>
<path d="M69.7188 27.5156C68.0156 28 66.8594 29.0234 66.25 30.5859C65.9844 33.7266 67.2422 35.5312 70.0234 36C73.1016 35.9375 74.6719 34.4062 74.7344 31.4062C73.9844 28.6875 72.3125 27.3906 69.7188 27.5156Z" fill="#4C84AD"/>
<path d="M80.0547 6.82031H87.8828V1.73438H80.0547V6.82031ZM80.0547 34.8984H87.8828V11.625H80.0547V34.8984ZM78.8594 7.92188V0.632812H89.0781V7.92188H78.8594ZM78.8594 36V10.5234H89.0781V36H78.8594Z" fill="#4C84AD"/>
<path d="M94.8438 36V10.5234H104.055V13.0547C104.055 13.3984 104.023 13.7344 103.961 14.0625C103.914 14.3906 103.836 14.7266 103.727 15.0703C104.789 13.3516 106.109 12.0547 107.688 11.1797C109.281 10.2891 111.078 9.84375 113.078 9.84375C114.891 9.84375 116.516 10.25 117.953 11.0625C119.406 11.875 120.484 12.9844 121.188 14.3906C121.609 15.2031 121.906 16.1719 122.078 17.2969C122.25 18.4219 122.336 20.2422 122.336 22.7578V36H112.211V22.8047C112.211 20.8516 111.953 19.5156 111.438 18.7969C110.922 18.0781 110.031 17.7188 108.766 17.7188C107.484 17.7188 106.531 18.1406 105.906 18.9844C105.281 19.8281 104.969 21.1172 104.969 22.8516V36H94.8438ZM113.406 23.4141V34.8984H121.141V22.7109C121.141 20.9609 121.078 19.5625 120.953 18.5156C120.844 17.4531 120.664 16.5781 120.414 15.8906C119.836 14.3125 118.875 13.0938 117.531 12.2344C116.188 11.375 114.578 10.9453 112.703 10.9453C110.875 10.9453 109.156 11.4766 107.547 12.5391C105.953 13.6016 104.422 15.2109 102.953 17.3672V11.625H96.0391V34.8984H103.773V23.4609C103.773 21.1797 104.188 19.4688 105.016 18.3281C105.859 17.1875 107.125 16.6172 108.812 16.6172C110.484 16.6172 111.664 17.1094 112.352 18.0938C113.055 19.0625 113.406 20.8359 113.406 23.4141Z" fill="#4C84AD"/>
</svg>
